<svg xmlns="http://www.w3.org/2000/svg" width="400" height="400"><g transform="matrix(1.56 0 0 1.56 142.97 289.84)" clip-path="url(#a)"><radialGradient id="b" gradientUnits="userSpaceOnUse" gradientTransform="translate(-27.5 -121.5)" cx="27.5" cy="121.5" r="148.5" fx="27.5" fy="121.5"><stop offset="0%" stop-color="#ffd676"/><stop offset="25%" stop-color="#f2a454"/><stop offset="38%" stop-color="#f05c3c"/><stop offset="70%" stop-color="#c22f86"/><stop offset="96%" stop-color="#6666ad"/><stop offset="99%" stop-color="#5c6cb2"/></radialGradient><clipPath id="a"><rect transform="translate(36.5 -57.5)" x="-64" y="-64" rx="24" ry="24" width="128" height="128"/></clipPath><circle r="148.5" fill="url(#b)"/></g><g transform="matrix(1.56 0 0 1.56 121.67 574.03)" clip-path="url(#c)"><radialGradient id="d" gradientUnits="userSpaceOnUse" gradientTransform="translate(-13.87 -303.38)" cx="13.87" cy="303.38" r="185.63" fx="13.87" fy="303.38"><stop offset="0%" stop-color="#ffd676"/><stop offset="25%" stop-color="#f2a454"/><stop offset="38%" stop-color="#f05c3c"/><stop offset="70%" stop-color="#c22f86"/><stop offset="96%" stop-color="#6666ad"/><stop offset="99%" stop-color="#5c6cb2"/></radialGradient><clipPath id="c"><circle transform="translate(68.13 -94.38)" r="5"/></clipPath><circle r="185.63" fill="url(#d)"/></g><circle r="5" fill="#fff" transform="matrix(1.56 0 0 1.56 228.13 171.88)"/><path d="M200 175.04A24.96 24.96 0 10224.96 200 24.96 24.96 0 00200 175.04zm0 37.44A12.48 12.48 0 11212.48 200 12.48 12.48 0 01200 212.48z" fill="#fff"/><rect x="-32" y="-32" rx="12" ry="12" width="64" height="64" stroke="#fff" stroke-width="8" stroke-miterlimit="10" fill="none" transform="matrix(1.56 0 0 1.56 200 200)"/></svg>